<svg xmlns="http://www.w3.org/2000/svg" viewBox="0 0 24 24">
  <defs>
    <linearGradient id="ig" x1="0" y1="0" x2="1" y2="1">
      <stop offset="0%" stop-color="#f58529"/>
      <stop offset="45%" stop-color="#dd2a7b"/>
      <stop offset="100%" stop-color="#8134af"/>
    </linearGradient>
  </defs>
  <path fill="url(#ig)" d="M7.5 2h9A5.5 5.5 0 0 1 22 7.5v9A5.5 5.5 0 0 1 16.5 22h-9A5.5 5.5 0 0 1 2 16.5v-9A5.5 5.5 0 0 1 7.5 2Zm9 2h-9A3.5 3.5 0 0 0 4 7.5v9A3.5 3.5 0 0 0 7.5 20h9a3.5 3.5 0 0 0 3.5-3.5v-9A3.5 3.5 0 0 0 16.5 4Z"/>
  <path fill="url(#ig)" d="M12 8a4.5 4.5 0 1 1 0 9 4.5 4.5 0 0 1 0-9Zm0 2a2.5 2.5 0 1 0 0 5 2.5 2.5 0 0 0 0-5Z"/>
  <circle cx="17.75" cy="6.25" r="1" fill="url(#ig)"/>
</svg>
