<svg xmlns="http://www.w3.org/2000/svg" viewBox="0 0 32 32">
  <path fill="#25D366" d="M16 3C9.4 3 4 8.3 4 14.8c0 2.4.7 4.7 2.1 6.7L5 29l7.7-1.9c1.9 1 4.1 1.5 6.3 1.5 6.6 0 12-5.3 12-11.8S22.6 3 16 3zm0 22.4c-2 0-3.9-.5-5.6-1.6l-.4-.2-4.6 1.1 1.1-4.4-.3-.4c-1.2-1.8-1.9-3.9-1.9-6.1C4.3 9.6 9.6 4.6 16 4.6S27.7 9.6 27.7 15.8 22.4 25.4 16 25.4z"/>
  <path fill="#25D366" d="M22.7 19.3c-.4-.2-2.1-1-2.5-1.1-.3-.1-.6-.2-.9.2-.3.4-1 1.1-1.2 1.4-.2.2-.4.3-.8.1-.4-.2-1.5-.5-2.9-1.7-1.1-1-1.8-2.2-2-2.6-.2-.4 0-.6.2-.7.2-.2.4-.4.6-.6.2-.2.2-.3.3-.5.1-.2 0-.4 0-.6-.1-.2-.9-2.1-1.2-2.8-.3-.7-.6-.6-.9-.6h-.7c-.2 0-.6.1-.8.4-.3.3-1.1 1.1-1.1 2.6s1.1 3 1.3 3.2c.2.2 2.2 3.4 5.4 4.8.8.3 1.4.5 1.9.6.8.2 1.5.2 2 .1.6-.1 2.1-.8 2.4-1.6.3-.8.3-1.5.2-1.6-.1-.1-.3-.2-.7-.4z"/>
</svg>
